<?xml version="1.0" encoding="utf-8"?>
<!-- Generator: Adobe Illustrator 22.1.0, SVG Export Plug-In . SVG Version: 6.00 Build 0)  -->
<svg version="1.1" id="Layer_1" xmlns="http://www.w3.org/2000/svg" xmlns:xlink="http://www.w3.org/1999/xlink" x="0px" y="0px"
	 viewBox="0 0 200 220" style="enable-background:new 0 0 200 220;" xml:space="preserve">
<g>
	<path d="M0,0v60v15h15h15h15h15h15h45h5v45c0,13.8-11.2,25-25,25s-25-11.2-25-25V90H60v30c0,22.1,17.9,40,40,40s40-17.9,40-40V75
		V60H60H45H30H15V15h170v105c0,46.9-38.1,85-85,85s-85-38.1-85-85V90H0v30c0,55.2,44.8,100,100,100c27.6,0,52.6-11.2,70.7-29.3
		c18.1-18.1,29.3-43.1,29.3-70.7V0H0z"/>
	<path d="M100,175c-30.3,0-55-24.7-55-55V90H30v30c0,38.6,31.4,70,70,70s70-31.4,70-70V30H30v15h15h110v75
		C155,150.3,130.3,175,100,175z"/>
</g>
</svg>
